<?xml version="1.0" encoding="UTF-8"?>
<svg xmlns="http://www.w3.org/2000/svg" width="512" height="512" viewBox="0 0 512 512">
  <defs>
    <linearGradient id="g" x1="0" y1="0" x2="1" y2="1">
      <stop offset="0%" stop-color="#ff7a18"/>
      <stop offset="50%" stop-color="#ff4ecd"/>
      <stop offset="100%" stop-color="#6a5cff"/>
    </linearGradient>
    <filter id="shadow" x="-50%" y="-50%" width="200%" height="200%">
      <feDropShadow dx="0" dy="6" stdDeviation="10" flood-color="#000" flood-opacity="0.25"/>
    </filter>
  </defs>
  <rect x="0" y="0" width="512" height="512" rx="110" fill="#0b0f1a"/>
  <!-- Sparkles icon -->
  <g filter="url(#shadow)">
    <!-- Main sparkle -->
    <g transform="translate(260,250)">
      <path d="M0,-110 L22,-22 L110,0 L22,22 L0,110 L-22,22 L-110,0 L-22,-22 Z" fill="url(#g)"/>
    </g>
    <!-- Small sparkle top-left -->
    <g transform="translate(150,150) scale(0.55)">
      <path d="M0,-80 L16,-16 L80,0 L16,16 L0,80 L-16,16 L-80,0 L-16,-16 Z" fill="url(#g)" opacity="0.85"/>
    </g>
    <!-- Small sparkle bottom-right -->
    <g transform="translate(360,360) scale(0.45)">
      <path d="M0,-80 L16,-16 L80,0 L16,16 L0,80 L-16,16 L-80,0 L-16,-16 Z" fill="url(#g)" opacity="0.9"/>
    </g>
  </g>
</svg>
